<svg width="36" height="28" viewBox="0 0 36 28" fill="none" xmlns="http://www.w3.org/2000/svg">
<path d="M34.8167 9.98336L33.15 9.0667L18.15 0.733362H17.9667C17.8645 0.69016 17.7585 0.656679 17.65 0.633362H17.3333H17.0333C16.9195 0.656694 16.8079 0.69016 16.7 0.733362H16.5167L1.51667 9.0667C1.26017 9.21206 1.04682 9.42286 0.898391 9.67759C0.749958 9.93232 0.671753 10.2219 0.671753 10.5167C0.671753 10.8115 0.749958 11.1011 0.898391 11.3558C1.04682 11.6105 1.26017 11.8213 1.51667 11.9667L5.66667 14.2667V22.1667C5.66667 23.4928 6.19345 24.7645 7.13113 25.7022C8.06882 26.6399 9.34058 27.1667 10.6667 27.1667H24C25.3261 27.1667 26.5979 26.6399 27.5355 25.7022C28.4732 24.7645 29 23.4928 29 22.1667V14.2667L32.3333 12.4V17.1667C32.3333 17.6087 32.5089 18.0326 32.8215 18.3452C33.134 18.6578 33.558 18.8334 34 18.8334C34.442 18.8334 34.866 18.6578 35.1785 18.3452C35.4911 18.0326 35.6667 17.6087 35.6667 17.1667V11.4334C35.6662 11.138 35.5872 10.8481 35.4378 10.5934C35.2885 10.3386 35.0741 10.1281 34.8167 9.98336ZM25.6667 22.1667C25.6667 22.6087 25.4911 23.0326 25.1785 23.3452C24.866 23.6578 24.442 23.8334 24 23.8334H10.6667C10.2246 23.8334 9.80072 23.6578 9.48816 23.3452C9.1756 23.0326 9 22.6087 9 22.1667V16.1167L16.5167 20.2834L16.7667 20.3834H16.9167C17.055 20.4008 17.195 20.4008 17.3333 20.3834C17.4717 20.4008 17.6117 20.4008 17.75 20.3834H17.9C17.9885 20.3647 18.0731 20.3309 18.15 20.2834L25.6667 16.1167V22.1667ZM17.3333 16.9334L5.76667 10.5L17.3333 4.06669L28.9 10.5L17.3333 16.9334Z" fill="#2E90D1"/>
</svg>
