<svg width="32" height="31" viewBox="0 0 32 31" fill="none" xmlns="http://www.w3.org/2000/svg">
<path d="M3.42999 22.92C3.57718 23.29 3.86532 23.5863 4.23102 23.7439C4.59671 23.9014 5.01001 23.9072 5.37999 23.76C5.74996 23.6128 6.04631 23.3247 6.20384 22.959C6.36137 22.5933 6.36718 22.18 6.21999 21.81L4.53999 17.58L14.5 15.375V22.5C14.5 22.8978 14.658 23.2794 14.9393 23.5607C15.2206 23.842 15.6022 24 16 24C16.3978 24 16.7793 23.842 17.0606 23.5607C17.342 23.2794 17.5 22.8978 17.5 22.5V15.375L27.46 17.58L25.78 21.81C25.7069 21.9932 25.6707 22.189 25.6734 22.3862C25.6761 22.5833 25.7176 22.7781 25.7956 22.9592C25.8736 23.1403 25.9866 23.3043 26.1281 23.4417C26.2695 23.5791 26.4367 23.6873 26.62 23.76C26.7967 23.8298 26.985 23.8655 27.175 23.865C27.4754 23.8653 27.769 23.7754 28.0177 23.6069C28.2664 23.4384 28.4588 23.1991 28.57 22.92L30.895 17.055C30.9748 16.8521 31.0094 16.6343 30.9965 16.4167C30.9835 16.1991 30.9233 15.987 30.82 15.795C30.7198 15.6037 30.5794 15.4364 30.4086 15.3044C30.2377 15.1723 30.0403 15.0787 29.83 15.03L25 13.965V7.5C25 7.10218 24.842 6.72064 24.5606 6.43934C24.2793 6.15804 23.8978 6 23.5 6H20.5V1.5C20.5 1.10218 20.342 0.720644 20.0606 0.43934C19.7793 0.158035 19.3978 0 19 0H13C12.6022 0 12.2206 0.158035 11.9393 0.43934C11.658 0.720644 11.5 1.10218 11.5 1.5V6H8.49999C8.10216 6 7.72063 6.15804 7.43933 6.43934C7.15802 6.72064 6.99999 7.10218 6.99999 7.5V13.965L2.16999 15C1.95963 15.0487 1.76228 15.1423 1.59142 15.2744C1.42056 15.4064 1.28022 15.5737 1.17999 15.765C1.07668 15.957 1.01645 16.1691 1.0035 16.3867C0.990548 16.6043 1.02518 16.8221 1.10499 17.025L3.42999 22.92ZM14.5 3H17.5V6H14.5V3ZM9.99999 9H22V13.29L16.33 12H16.18H16H15.82H15.67L9.99999 13.29V9ZM29.065 25.92C28.5387 26.0813 28.0347 26.3081 27.565 26.595C27.0871 26.8744 26.5435 27.0217 25.99 27.0217C25.4364 27.0217 24.8928 26.8744 24.415 26.595C23.3759 26.0088 22.203 25.7008 21.01 25.7008C19.8169 25.7008 18.6441 26.0088 17.605 26.595C17.1206 26.8712 16.5726 27.0165 16.015 27.0165C15.4574 27.0165 14.9094 26.8712 14.425 26.595C13.385 26.0116 12.2125 25.7052 11.02 25.7052C9.8275 25.7052 8.65502 26.0116 7.61499 26.595C7.13714 26.8744 6.59354 27.0217 6.03999 27.0217C5.48643 27.0217 4.94283 26.8744 4.46499 26.595C3.99524 26.3081 3.49129 26.0813 2.96499 25.92C2.7654 25.849 2.55305 25.8212 2.34191 25.8382C2.13076 25.8552 1.92562 25.9168 1.73999 26.0188C1.55435 26.1208 1.39243 26.261 1.26488 26.4301C1.13734 26.5993 1.04706 26.7935 0.999986 27C0.888004 27.3799 0.930825 27.7887 1.1191 28.1371C1.30738 28.4856 1.62584 28.7455 2.00499 28.86C2.30703 28.9418 2.59519 29.0682 2.85999 29.235C3.77005 29.769 4.80484 30.0536 5.85999 30.06C6.95589 30.0602 8.03232 29.7704 8.97999 29.22C9.56795 28.8957 10.2285 28.7255 10.9 28.7255C11.5715 28.7255 12.232 28.8957 12.82 29.22C13.7609 29.758 14.8261 30.0411 15.91 30.0411C16.9939 30.0411 18.059 29.758 19 29.22C19.5879 28.8957 20.2485 28.7255 20.92 28.7255C21.5915 28.7255 22.252 28.8957 22.84 29.22C23.7697 29.7749 24.8323 30.0679 25.915 30.0679C26.9977 30.0679 28.0603 29.7749 28.99 29.22C29.2548 29.0532 29.5429 28.9268 29.845 28.845C30.0446 28.8046 30.2339 28.724 30.4014 28.6081C30.5688 28.4922 30.7109 28.3433 30.819 28.1707C30.927 27.9981 30.9988 27.8053 31.0299 27.604C31.0611 27.4027 31.0509 27.1972 31 27C30.9523 26.797 30.8628 26.6062 30.7373 26.4397C30.6117 26.2732 30.4528 26.1347 30.2708 26.0331C30.0887 25.9315 29.8874 25.8689 29.6798 25.8495C29.4722 25.83 29.2628 25.854 29.065 25.92Z" fill="#78258D"/>
</svg>
